<svg width="37" height="27" viewBox="0 0 37 27" fill="none" xmlns="http://www.w3.org/2000/svg">
<path d="M0 19.4542C0 19.7568 0.151341 20.1146 0.385232 20.3484L6.45262 26.5672C6.71404 26.8424 7.03047 26.98 7.37443 26.98C7.70463 26.98 8.02107 26.8424 8.28248 26.5672L14.3637 20.3484C14.5975 20.1146 14.7351 19.7568 14.7351 19.4542C14.7351 18.725 14.2398 18.2435 13.5243 18.2435C13.1666 18.2435 12.8915 18.3535 12.6851 18.5736L10.6902 20.6787L8.46133 23.2378L8.59892 20.0595V6.92041L8.46133 3.74225L10.6902 6.30129L12.6851 8.40631C12.8915 8.62644 13.1666 8.7365 13.5243 8.7365C14.2398 8.7365 14.7351 8.25496 14.7351 7.52578C14.7351 7.22309 14.5975 6.86538 14.3637 6.63149L8.28248 0.412747C8.02107 0.137583 7.70463 0 7.37443 0C7.03047 0 6.71404 0.137583 6.45262 0.412747L0.385232 6.63149C0.151341 6.86538 0 7.22309 0 7.52578C0 8.25496 0.495298 8.7365 1.21073 8.7365C1.56845 8.7365 1.85737 8.61268 2.04998 8.40631L4.05869 6.30129L6.27377 3.74225L6.13619 6.92041V20.0595L6.27377 23.2378L4.05869 20.6787L2.04998 18.5736C1.85737 18.3673 1.56845 18.2435 1.21073 18.2435C0.495298 18.2435 0 18.725 0 19.4542ZM17.4179 9.85091C17.4179 10.2499 17.7207 10.5663 18.1471 10.6214C24.6273 11.3506 25.5767 12.2586 26.4433 18.9451C26.5121 19.3579 26.8287 19.6331 27.2001 19.6331C27.5853 19.6331 27.9017 19.3579 27.9705 18.9451C28.8373 12.2586 29.7729 11.3506 36.253 10.6214C36.6933 10.5663 36.9822 10.2499 36.9822 9.85091C36.9822 9.45193 36.6933 9.13549 36.253 9.08046C29.7867 8.35127 28.8373 7.42946 27.9705 0.756704C27.9017 0.357716 27.5991 0.0825496 27.2001 0.0825496C26.8148 0.0825496 26.5121 0.357716 26.4433 0.756704C25.5216 7.38819 24.6411 8.21368 18.1471 9.08046C17.7207 9.13549 17.4179 9.45193 17.4179 9.85091ZM16.111 21.8344C16.111 22.1095 16.3035 22.3434 16.6062 22.4122C20.1146 23.0726 20.1834 23.0314 20.5823 26.3333C20.6374 26.6497 20.8575 26.8836 21.1602 26.8836C21.4767 26.8836 21.6968 26.6635 21.7518 26.3471C22.192 22.8938 22.3434 22.8938 25.7004 22.4122C26.0169 22.3572 26.2232 22.1234 26.2232 21.8344C26.2232 21.5592 26.0307 21.3115 25.7142 21.2566C22.3022 20.5962 22.2059 20.6787 21.7518 17.3079C21.6968 17.0052 21.4628 16.7851 21.1602 16.7851C20.8575 16.7851 20.6374 17.019 20.5823 17.3354C20.1834 20.6374 20.1008 20.6924 16.6613 21.2566C16.3173 21.3115 16.111 21.5316 16.111 21.8344Z" fill="#9EFF00"/>
</svg>
