<svg width="32" height="34" viewBox="0 0 32 34" fill="none" xmlns="http://www.w3.org/2000/svg">
<path d="M0 17.58V19.9493C0 23.0578 1.56938 24.6272 4.73833 24.6272H8.55614V22.1977H4.7685C3.25948 22.1977 2.42952 21.3829 2.42952 19.8134V17.58H0ZM2.42952 15.5128V8.66177H0V15.5128H2.42952ZM2.42952 6.6095V4.81377C2.42952 3.24439 3.25948 2.42952 4.7685 2.42952H6.95658V0H4.73833C1.56938 0 0 1.56938 0 4.67796V6.6095H2.42952ZM15.8598 0H9.00884V2.42952H15.8598V0ZM17.9121 2.42952H19.8437C21.3375 2.42952 22.1826 3.24439 22.1826 4.81377V8.11853H24.6121V4.67796C24.6121 1.56938 23.0276 0 19.8889 0H17.9121V2.42952ZM31.9309 23.3445V11.6647C31.9309 8.55614 30.3464 6.98676 27.2076 6.98676H12.0571C8.88812 6.98676 7.31874 8.54105 7.31874 11.6647V26.9361C7.31874 30.0446 8.88812 31.614 12.0571 31.614H19.6625V29.1845H12.0873C10.5933 29.1845 9.74827 28.3695 9.74827 26.8002V11.8006C9.74827 10.2312 10.5933 9.41628 12.0873 9.41628H27.1624C28.6563 9.41628 29.5014 10.2312 29.5014 11.8006V20.9L31.9309 23.3445ZM21.0206 28.8827C21.0056 29.4711 21.6998 29.6522 22.0769 29.2901L24.3858 26.9813L26.9662 33.3493C27.087 33.6361 27.3887 33.7719 27.6604 33.6662L29.1693 33.0627C29.4259 32.9419 29.5466 32.625 29.3957 32.3383L26.6946 26.0608L29.954 25.94C30.5124 25.9099 30.7991 25.3515 30.3917 24.9291L22.1373 16.4483C21.76 16.0559 21.1715 16.2823 21.1565 16.8406L21.0206 28.8827Z" fill="#9EFF00"/>
</svg>
